<svg xmlns="http://www.w3.org/2000/svg" width="100%" height="100%" viewBox="0 0 79 72" fill="none" preserveAspectRatio="xMidYMid meet" aria-hidden="true"><path d="M46.7426 40.4963V45.6497C46.7426 52.7615 52.5151 58.5333 59.6277 58.5333H69.9357V61.1101C69.9357 65.3617 66.4567 68.8402 62.2047 68.8402H10.6646C6.41255 68.8402 2.93359 65.3617 2.93359 61.1101V25.0359C2.93359 20.7586 6.41255 17.3058 10.6646 17.3058H62.2047C66.4567 17.3058 69.9357 20.7586 69.9357 25.0359V27.6127H59.6277C52.5151 27.6127 46.7426 33.3845 46.7426 40.4963ZM77.6667 40.4963V45.6497C77.6667 47.9172 76.6617 49.9786 75.0897 51.3958C73.7239 52.6326 71.8942 53.3799 69.9357 53.3799H59.6277C55.3756 53.3799 51.8967 49.9013 51.8967 45.6497V40.4963C51.8967 36.2189 55.3756 32.7661 59.6277 32.7661H69.9357C71.8942 32.7661 73.7239 33.5134 75.0897 34.7502C76.6617 36.1416 77.6667 38.203 77.6667 40.4963ZM64.7817 43.073C64.7817 41.6558 63.622 40.4963 62.2047 40.4963C60.7873 40.4963 59.6277 41.6558 59.6277 43.073C59.6277 44.4902 60.7873 45.6497 62.2047 45.6497C63.622 45.6497 64.7817 44.4902 64.7817 43.073ZM56.0456 6.94732C55.4014 4.75711 53.8809 2.97917 51.8193 2.02578C49.7577 1.09816 47.3869 1.09816 45.3253 2.05155L23.7042 12.1523H57.5403L56.0456 6.94732Z" fill="#F1AF06"></path><path d="M8.88935 17.6194C13.3879 17.6194 17.8745 17.4988 22.3711 17.4988C25.3533 17.4988 28.3566 17.5989 31.3321 17.405C35.6332 17.1247 39.9778 17.4988 44.2789 17.4988C46.6583 17.4988 49.0552 17.4952 51.4277 17.6865C53.615 17.8628 55.8251 17.7188 58.0013 17.9545C59.6119 18.129 61.1488 17.9608 62.7561 18.2829C63.8382 18.4998 64.9301 18.7186 66.0128 18.9195C68.0238 19.2927 70.2946 20.7326 70.6137 22.9002C70.7477 23.8102 70.8566 24.7772 70.7542 25.7014C70.6729 26.434 69.859 26.9634 69.3164 27.3366C67.5854 28.527 65.1369 28.3552 63.1506 28.3552C61.889 28.3552 60.6528 28.4758 59.3856 28.4758C58.3231 28.4758 57.2926 28.4055 56.2894 28.8109C55.8259 28.9982 55.3529 28.9644 54.8984 29.1057C54.317 29.2866 53.7464 29.5922 53.1931 29.8496C51.6394 30.5725 50.4823 31.5693 49.3078 32.7915C47.7226 34.4411 47.6486 36.7407 47.3818 38.8497C47.0531 41.4483 47.0811 44.463 47.6493 47.0254C48.1765 49.4028 48.8791 52.72 50.779 54.4372C51.7073 55.2763 52.4959 55.997 53.6211 56.5817C54.3633 56.9674 55.32 56.8122 56.1289 56.8833C57.1094 56.9695 58.0815 57.0923 59.0579 57.2116C60.4167 57.3777 61.7854 57.8466 63.1172 58.1431C64.065 58.3542 65.0304 58.439 65.9861 58.6055C66.8697 58.7595 67.8102 58.753 68.7078 58.753C69.5945 58.753 70.2023 59.8122 70.2727 60.6227C70.3589 61.6167 70.4319 62.9103 69.945 63.7925C69.359 64.8539 68.7883 65.8983 68.1728 66.9422C66.9452 69.0241 63.5602 69.3972 61.452 69.4954C60.6781 69.5315 59.9453 69.73 59.1583 69.73C58.3544 69.73 57.5702 69.7348 56.7709 69.8238C55.3888 69.9777 54.0206 70.3331 52.6247 70.3331C49.3158 70.3331 46.0114 70.0275 42.714 69.8439C41.9236 69.7999 41.1705 69.5256 40.3735 69.4954C39.5506 69.4643 38.7225 69.4887 37.8991 69.4887C36.0008 69.4887 34.1222 69.4123 32.2349 69.1871C30.491 68.9791 28.699 69.1644 26.9452 69.033C25.357 68.914 23.7297 69.0062 22.137 69.0062C19.2486 69.0062 16.3957 68.9714 13.5237 68.7583C12.3711 68.6727 11.2367 68.4148 10.0931 68.2556C8.90934 68.0909 7.59822 67.7857 6.54877 67.1968C5.45421 66.5826 4.43485 65.7579 3.76682 64.6637C3.12829 63.6177 2.92275 62.5395 2.5631 61.4068C2.18438 60.214 2.14173 58.9959 2.00136 57.7612C1.86117 56.528 1.66699 55.3442 1.66699 54.0955C1.66699 53.4544 1.66699 52.8133 1.66699 52.1722C1.66699 51.2914 1.86729 50.4768 1.90774 49.6122C1.9657 48.373 2.14848 47.1603 2.14848 45.913C2.14848 44.5468 2.38923 43.2227 2.38923 41.8653C2.38923 40.5585 2.38923 39.2517 2.38923 37.945C2.38923 35.3068 2.38923 32.6687 2.38923 30.0305C2.38923 27.638 2.38102 25.3008 3.05128 22.9873C3.42868 21.6846 4.05616 19.6441 5.34504 18.9396C5.91971 18.6255 6.48924 18.2421 7.13726 18.0751C8.03546 17.8437 9.01222 17.6785 9.85233 17.2576" stroke="#201A17" stroke-width="3.33333" stroke-linecap="round"></path><path d="M23.9355 11.9504C24.7232 11.8786 25.4166 11.2774 26.129 10.9854C26.5739 10.803 27.0176 10.6253 27.433 10.3755C29.0826 9.38367 31.0317 8.83326 32.7762 8.03001C37.0038 6.08354 41.3338 4.29936 45.6628 2.60183C47.1544 2.01694 48.7383 2.05902 50.3239 2.05902C52.1255 2.05902 53.6461 2.73273 54.898 4.01584C56.7454 5.90917 57.1412 8.42779 57.8539 10.8379C57.9493 11.1607 57.9197 11.4 57.6131 11.5215C56.922 11.7953 56.0896 12.0386 55.3595 12.1849C53.9603 12.4653 52.4405 12.3122 51.0194 12.3122C49.4218 12.3122 47.9129 11.8297 46.3248 11.8297C44.7605 11.8297 43.194 11.6858 41.637 11.5818C38.2068 11.3526 34.8108 11.3945 31.3719 11.4679C30.0786 11.4954 28.6919 11.6566 27.4264 11.9236C26.8925 12.0362 26.3296 12.0133 25.7879 12.1313C25.4362 12.2079 24.1804 12.1835 24.0559 12.4329" stroke="#201A17" stroke-width="3.33333" stroke-linecap="round"></path><path d="M52.7048 45.7256C52.7048 43.8283 52.5845 41.9105 52.5845 40.0294C52.5845 38.3564 53.0642 36.2788 54.584 35.3518C55.5199 34.7809 56.5893 34.0503 57.6334 33.7233C58.5035 33.4508 59.4116 33.5424 60.3151 33.5424C62.2785 33.5424 64.2195 33.663 66.1799 33.663C66.9645 33.663 67.7492 33.663 68.5338 33.663C69.5085 33.663 70.2484 33.8133 71.1887 33.9981C73.0885 34.3714 74.5356 35.6118 75.8164 36.9869C76.8926 38.1424 77.0201 40.2407 77.0201 41.7449C77.0201 42.6697 77.0201 43.5945 77.0201 44.5194C77.0201 45.312 77.0505 46.3588 76.7794 47.1061C76.4479 48.0196 75.9093 49.2071 75.0874 49.7733C74.7794 49.9855 74.4772 50.2547 74.1913 50.497C73.9045 50.7403 73.4886 50.8874 73.2417 51.1538C72.8801 51.5441 72.127 51.4714 71.6033 51.6095C69.924 52.0524 68.3416 52.3597 66.6212 52.4874C65.2673 52.5879 63.6947 52.8102 62.3614 52.4539C60.1561 51.8646 57.4092 51.723 55.6607 50.0682C54.289 48.77 53.066 46.7249 53.066 44.7606" stroke="#201A17" stroke-width="3.33333" stroke-linecap="round"></path><path d="M53.4272 42.7098C53.628 41.6919 53.7883 40.7297 53.7883 39.6942C53.7883 39.3952 54.0006 39.0844 54.1762 38.8498C55.015 37.7291 56.1046 36.8294 57.4864 36.4909C59.6896 35.9512 62.2362 36.0782 64.4747 36.2899C67.4025 36.5666 70.4248 37.4009 73.1148 38.6086C74.551 39.2533 75.1528 40.9641 74.5726 42.4418C74.0492 43.7751 72.7034 44.528 71.3961 44.9012C67.9574 45.883 63.8105 45.5417 60.4155 44.5661C58.7059 44.0749 51.7903 41.8214 53.6546 38.6689C54.6527 36.9809 57.2857 36.9668 58.9643 37.027C61.4796 37.1172 64.7704 37.5211 66.6682 39.3859C67.4038 40.1087 67.7451 41.471 67.0159 42.3346C66.3117 43.1686 64.9044 43.1468 63.9932 42.7568C62.9846 42.325 62.2437 41.4236 62.1743 40.3107C62.1036 39.1771 62.5289 37.9089 63.8194 37.7776C65.4352 37.6132 66.9576 38.7747 67.9588 39.9153C68.1991 40.1891 69.3755 41.5362 68.9954 42.0531C68.6489 42.5243 67.8253 41.7239 67.678 41.4634C67.23 40.6711 67.4053 39.529 67.8318 38.7627C68.5935 37.3939 70.6961 37.8881 71.6302 38.7761C71.8224 38.9588 72.3821 39.4637 72.1251 39.3993C71.5087 39.2449 70.7873 38.0331 70.4666 37.5631C70.0533 36.9574 69.4916 35.7365 70.7475 36.2362C71.5896 36.5713 73.2156 37.5439 73.5027 38.5147C73.6831 39.1251 73.5717 40.1434 73.4492 40.7396C73.0056 42.8988 72.0789 45.2854 70.821 47.0993C69.8147 48.5505 68.6999 48.8763 66.9758 48.3324C65.4139 47.8396 63.9162 47.067 62.4953 46.2616C61.605 45.7571 60.5131 45.2686 60.2216 44.1976C59.6918 42.2511 60.7211 40.9966 62.522 40.3509C62.9226 40.2073 63.3532 40.1827 63.7525 40.0494C64.2772 39.8741 62.9371 39.3818 62.9299 39.3792C60.9094 38.6692 58.3404 37.8902 56.169 38.1462C54.7798 38.3099 54.262 39.8966 53.9087 41.0211C53.5366 42.2057 53.5252 43.7414 53.8151 44.9481C53.9675 45.5826 54.3302 46.9642 54.8315 47.421C55.4515 47.9858 56.1191 48.4334 56.7976 48.9221C56.8365 48.9501 57.4585 49.4425 57.4931 49.4113C57.6956 49.2287 57.475 48.8652 57.4463 48.5937C57.362 47.7954 57.2442 47.0073 57.0785 46.2214C56.6054 43.9774 56.0817 41.7408 55.5672 39.5065C55.2388 38.0805 57.3515 41.931 57.667 43.3599C57.8829 44.338 57.8332 45.334 58.0014 46.3152C58.0014 46.3152 58.1724 47.0557 58.3023 46.7374C58.736 45.6749 58.4798 44.0292 58.4828 42.9243C58.4866 41.5438 58.4828 40.1633 58.4828 38.7828C58.4828 36.5555 58.7062 43.2426 59.0847 45.4373C59.2639 46.476 59.3123 45.7915 59.3255 45.2296C59.3675 43.4406 59.6334 41.6468 60.1146 39.922C60.4309 38.788 60.5231 39.4491 60.6763 40.2236C60.9345 41.5288 61.2371 42.84 61.6125 44.1171C61.6827 44.3559 61.8906 45.0397 62.0405 44.4388C62.3597 43.1594 62.3819 41.819 62.7628 40.552C62.9549 39.9128 63.256 39.2917 63.6187 40.2035C64.1308 41.4903 64.325 42.8835 64.8492 44.1641C65.0497 44.6538 65.2797 45.1145 65.4243 44.3852C65.8108 42.4358 66.0968 40.4728 66.6816 38.5683C66.7642 38.2993 66.8405 37.5408 66.9357 38.173C67.1105 39.3339 67.4874 40.4612 67.8184 41.584C67.8319 41.6297 68.0799 42.8468 68.1862 42.5155C68.4366 41.735 68.53 40.8984 68.6878 40.0963C68.845 39.2965 68.9218 39.4407 69.2294 40.1298C69.6182 41.0006 69.9912 41.9096 70.4934 42.7232C70.7122 43.0779 71.2961 43.32 70.4599 43.1588C68.6057 42.8015 67.5242 41.2422 67.2299 39.473C66.8246 37.0363 69.5081 37.6742 70.9882 36.9466C71.6742 36.6093 69.4448 36.0128 69.3164 35.9816C69.2606 35.968 68.3547 35.7014 68.6343 35.9816C69.2954 36.6441 70.0797 37.1545 70.6672 37.8982C72.0391 39.6348 71.591 41.9043 71.3694 43.9027C71.338 44.1859 71.3686 44.0709 71.4965 43.8759C71.9206 43.2291 72.429 42.639 72.961 42.0799C73.5019 41.5114 73.8131 40.6978 74.2249 41.8253C74.8801 43.6189 74.7211 46.3625 73.4826 47.8901C73.2808 48.1389 73.1111 48.1306 72.7938 48.1916C71.8685 48.3696 70.9547 48.6044 70.0319 48.7948C68.0453 49.2046 65.7735 49.62 63.7525 49.1969C62.0288 48.8359 60.6697 47.5198 59.165 46.6771C58.5082 46.3093 58.6032 47.2339 58.6032 47.6555C58.6032 48.5414 59.1364 49.4383 59.6866 50.115C60.4184 51.015 62.0738 51.0257 63.1105 51.0331C64.5221 51.043 65.9278 51.1406 67.3369 51.1537C68.1331 51.1611 69.0468 51.2702 69.7979 50.9593C71.0376 50.4462 71.6456 49.4135 71.3627 48.138" stroke="#201A17" stroke-width="3.33333" stroke-linecap="round"></path><path d="M57.7603 42.2271C58.0888 42.2271 58.4534 42.2816 58.5892 42.656C58.8303 43.3208 57.0868 43.3994 57.2055 42.8637C57.3272 42.3149 58.4593 41.5483 58.9635 41.9925C59.194 42.1955 59.4397 43.3772 58.9635 43.4333C58.1055 43.5345 58.1213 42.4706 58.1213 41.8652" stroke="#EAEEE6" stroke-width="3.33333" stroke-linecap="round"></path></svg>